<svg width="12" height="169" viewBox="0 0 12 169" fill="none" xmlns="http://www.w3.org/2000/svg">
<path d="M9.65928 6.25201H0.863281V5.12402L6.40728 1.90801L8.21928 0.960014V0.900009C7.77928 0.940009 7.31928 0.976011 6.83928 1.00801C6.35928 1.04001 5.89128 1.05602 5.43528 1.05602H0.863281V1.52588e-05H9.65928V1.14001L4.10328 4.34401L2.30328 5.29202V5.34001C2.74328 5.31601 3.19528 5.28801 3.65928 5.25601C4.11528 5.22401 4.57528 5.20802 5.03928 5.20802H9.65928V6.25201Z" fill="black"/>
<path d="M9.65928 17.8271L0.863281 19.6871V18.5471L5.65128 17.6231C6.12328 17.5351 6.59928 17.4471 7.07928 17.3591C7.55128 17.2711 8.02728 17.1831 8.50728 17.0951V17.0471C8.02728 16.9431 7.55128 16.8391 7.07928 16.7351C6.59928 16.6311 6.12328 16.5271 5.65128 16.4231L0.863281 15.2111V14.1911L5.65128 12.9671C6.12328 12.8631 6.59928 12.7591 7.07928 12.6551C7.55128 12.5511 8.02728 12.4431 8.50728 12.3311V12.2711C8.02728 12.1911 7.55128 12.1111 7.07928 12.0311C6.59928 11.9511 6.12328 11.8711 5.65128 11.7911L0.863281 10.8431V9.78713L9.65928 11.5991V12.9431L4.35528 14.2751C4.00328 14.3551 3.66728 14.4311 3.34728 14.5031C3.01928 14.5671 2.68728 14.6351 2.35128 14.7071V14.7551C2.68728 14.8191 3.01928 14.8911 3.34728 14.9711C3.66728 15.0511 4.00328 15.1271 4.35528 15.1991L9.65928 16.5071V17.8271Z" fill="black"/>
<path d="M9.81503 26.3479C9.81503 27.0839 9.63103 27.7359 9.26303 28.3039C8.88703 28.8639 8.35503 29.3039 7.66703 29.6239C6.97903 29.9439 6.16703 30.1039 5.23103 30.1039C4.28703 30.1039 3.47903 29.9439 2.80703 29.6239C2.12703 29.3039 1.60703 28.8639 1.24703 28.3039C0.887031 27.7359 0.707031 27.0839 0.707031 26.3479C0.707031 25.6119 0.891031 24.9639 1.25903 24.4039C1.61903 23.8359 2.13503 23.3919 2.80703 23.0719C3.47903 22.7519 4.28703 22.5919 5.23103 22.5919C6.16703 22.5919 6.97903 22.7519 7.66703 23.0719C8.35503 23.3919 8.88703 23.8359 9.26303 24.4039C9.63103 24.9639 9.81503 25.6119 9.81503 26.3479ZM8.84303 26.3479C8.84303 25.8199 8.69503 25.3599 8.39903 24.9679C8.10303 24.5759 7.68303 24.2719 7.13903 24.0559C6.59503 23.8399 5.95903 23.7319 5.23103 23.7319C4.49503 23.7319 3.86303 23.8399 3.33503 24.0559C2.79903 24.2719 2.39103 24.5759 2.11103 24.9679C1.82303 25.3599 1.67903 25.8199 1.67903 26.3479C1.67903 26.8679 1.82303 27.3279 2.11103 27.7279C2.39103 28.1199 2.79903 28.4239 3.33503 28.6399C3.86303 28.8559 4.49503 28.9639 5.23103 28.9639C5.95903 28.9639 6.59503 28.8559 7.13903 28.6399C7.68303 28.4239 8.10303 28.1199 8.39903 27.7279C8.69503 27.3279 8.84303 26.8679 8.84303 26.3479Z" fill="black"/>
<path d="M9.65928 39.8497H0.863281V37.6537C0.863281 36.7497 1.03528 35.9897 1.37928 35.3737C1.71528 34.7577 2.20728 34.2937 2.85528 33.9817C3.50328 33.6697 4.29528 33.5137 5.23128 33.5137C6.15928 33.5137 6.95528 33.6697 7.61928 33.9817C8.28328 34.2937 8.79128 34.7537 9.14328 35.3617C9.48728 35.9697 9.65928 36.7177 9.65928 37.6057V39.8497ZM8.74728 38.7457V37.7497C8.74728 37.0617 8.61128 36.4897 8.33928 36.0337C8.05928 35.5697 7.65528 35.2257 7.12728 35.0017C6.59928 34.7697 5.96728 34.6537 5.23128 34.6537C4.47928 34.6537 3.84728 34.7697 3.33528 35.0017C2.82328 35.2257 2.43528 35.5697 2.17128 36.0337C1.89928 36.4897 1.76328 37.0617 1.76328 37.7497V38.7457H8.74728Z" fill="black"/>
<path d="M9.65928 53.0489H0.863281V51.9449H8.71128V48.0929H9.65928V53.0489Z" fill="black"/>
<path d="M9.65928 61.5645H0.863281V60.4605H8.71128V56.6085H9.65928V61.5645Z" fill="black"/>
<path d="M9.81503 69.2308C9.81503 69.9668 9.63103 70.6188 9.26303 71.1868C8.88703 71.7468 8.35503 72.1868 7.66703 72.5068C6.97903 72.8268 6.16703 72.9868 5.23103 72.9868C4.28703 72.9868 3.47903 72.8268 2.80703 72.5068C2.12703 72.1868 1.60703 71.7468 1.24703 71.1868C0.887031 70.6188 0.707031 69.9668 0.707031 69.2308C0.707031 68.4948 0.891031 67.8468 1.25903 67.2868C1.61903 66.7188 2.13503 66.2748 2.80703 65.9548C3.47903 65.6348 4.28703 65.4748 5.23103 65.4748C6.16703 65.4748 6.97903 65.6348 7.66703 65.9548C8.35503 66.2748 8.88703 66.7188 9.26303 67.2868C9.63103 67.8468 9.81503 68.4948 9.81503 69.2308ZM8.84303 69.2308C8.84303 68.7028 8.69503 68.2428 8.39903 67.8508C8.10303 67.4588 7.68303 67.1548 7.13903 66.9388C6.59503 66.7228 5.95903 66.6148 5.23103 66.6148C4.49503 66.6148 3.86303 66.7228 3.33503 66.9388C2.79903 67.1548 2.39103 67.4588 2.11103 67.8508C1.82303 68.2428 1.67903 68.7028 1.67903 69.2308C1.67903 69.7508 1.82303 70.2108 2.11103 70.6108C2.39103 71.0028 2.79903 71.3068 3.33503 71.5228C3.86303 71.7388 4.49503 71.8468 5.23103 71.8468C5.95903 71.8468 6.59503 71.7388 7.13903 71.5228C7.68303 71.3068 8.10303 71.0028 8.39903 70.6108C8.69503 70.2108 8.84303 69.7508 8.84303 69.2308Z" fill="black"/>
<path d="M9.65928 82.088H0.863281V79.34C0.863281 78.74 0.943281 78.212 1.10328 77.756C1.25528 77.292 1.51128 76.928 1.87128 76.664C2.23128 76.4 2.71528 76.268 3.32328 76.268C3.90728 76.268 4.39528 76.4 4.78728 76.664C5.17128 76.928 5.45928 77.292 5.65128 77.756C5.83528 78.212 5.92728 78.74 5.92728 79.34V80.984H9.65928V82.088ZM5.03928 80.984V79.508C5.03928 78.82 4.89928 78.292 4.61928 77.924C4.33128 77.556 3.89928 77.372 3.32328 77.372C2.74728 77.372 2.34328 77.556 2.11128 77.924C1.87928 78.292 1.76328 78.82 1.76328 79.508V80.984H5.03928ZM9.65928 77.264L5.63928 79.568L5.05128 78.692L9.65928 76.016V77.264Z" fill="black"/>
<path d="M9.81503 88.4283C9.81503 88.9723 9.71503 89.4803 9.51503 89.9523C9.30703 90.4163 9.00703 90.8203 8.61503 91.1643C8.22303 91.5083 7.74703 91.7763 7.18703 91.9683C6.61903 92.1603 5.97903 92.2563 5.26703 92.2563C4.55503 92.2563 3.91903 92.1603 3.35903 91.9683C2.79103 91.7683 2.31103 91.4923 1.91903 91.1403C1.52703 90.7883 1.22703 90.3763 1.01903 89.9043C0.811031 89.4323 0.707031 88.9163 0.707031 88.3563C0.707031 87.8203 0.819031 87.3483 1.04303 86.9403C1.25903 86.5323 1.50703 86.2003 1.78703 85.9443L2.50703 86.5443C2.25903 86.7763 2.05903 87.0403 1.90703 87.3363C1.75503 87.6323 1.67903 87.9683 1.67903 88.3443C1.67903 88.8963 1.82303 89.3803 2.11103 89.7963C2.39903 90.2123 2.81103 90.5363 3.34703 90.7683C3.87503 91.0003 4.50303 91.1163 5.23103 91.1163C5.97503 91.1163 6.61903 91.0043 7.16303 90.7803C7.69903 90.5563 8.11503 90.2403 8.41103 89.8323C8.69903 89.4243 8.84303 88.9403 8.84303 88.3803C8.84303 87.9643 8.75503 87.5923 8.57903 87.2643C8.40303 86.9283 8.15903 86.6203 7.84703 86.3403L8.55503 85.7283C8.95503 86.0723 9.26703 86.4643 9.49103 86.9043C9.70703 87.3443 9.81503 87.8523 9.81503 88.4283Z" fill="black"/>
<path d="M9.81503 98.4527C9.81503 99.0767 9.69903 99.6527 9.46703 100.181C9.23503 100.701 8.91903 101.149 8.51903 101.525L7.75103 100.865C8.07903 100.553 8.34303 100.185 8.54303 99.7607C8.74303 99.3367 8.84303 98.8967 8.84303 98.4407C8.84303 97.8567 8.71103 97.4047 8.44703 97.0847C8.18303 96.7567 7.83903 96.5927 7.41503 96.5927C7.10303 96.5927 6.85503 96.6607 6.67103 96.7967C6.48703 96.9247 6.33503 97.1007 6.21503 97.3247C6.08703 97.5407 5.96303 97.7887 5.84303 98.0687L5.29103 99.3287C5.17103 99.6007 5.01903 99.8767 4.83503 100.157C4.65103 100.429 4.41103 100.657 4.11503 100.841C3.81903 101.025 3.45903 101.117 3.03503 101.117C2.57903 101.117 2.17903 100.997 1.83503 100.757C1.48303 100.517 1.20703 100.189 1.00703 99.7727C0.807031 99.3567 0.707031 98.8807 0.707031 98.3447C0.707031 97.8167 0.807031 97.3327 1.00703 96.8927C1.20703 96.4447 1.46703 96.0687 1.78703 95.7647L2.49503 96.3407C2.24703 96.6127 2.05103 96.9127 1.90703 97.2407C1.75503 97.5607 1.67903 97.9287 1.67903 98.3447C1.67903 98.8407 1.79503 99.2407 2.02703 99.5447C2.25103 99.8407 2.55903 99.9887 2.95103 99.9887C3.23903 99.9887 3.47503 99.9167 3.65903 99.7727C3.84303 99.6207 3.99103 99.4327 4.10303 99.2087C4.21503 98.9847 4.32303 98.7567 4.42703 98.5247L4.96703 97.2767C5.11103 96.9407 5.28303 96.6367 5.48303 96.3647C5.68303 96.0847 5.93103 95.8647 6.22703 95.7047C6.52303 95.5447 6.88703 95.4647 7.31903 95.4647C7.78303 95.4647 8.20703 95.5847 8.59103 95.8247C8.96703 96.0647 9.26703 96.4087 9.49103 96.8567C9.70703 97.3047 9.81503 97.8367 9.81503 98.4527Z" fill="black"/>
<path d="M10.707 117.525V167.525L0.707031 157.525" stroke="black" stroke-linecap="square"/>
</svg>
